<svg width="52" height="52" viewBox="0 0 52 52" fill="none" xmlns="http://www.w3.org/2000/svg">
<path d="M26 12.875C23.4041 12.875 20.8665 13.6448 18.7081 15.0869C16.5497 16.5291 14.8675 18.579 13.8741 20.9773C12.8807 23.3755 12.6208 26.0145 13.1272 28.5605C13.6336 31.1065 14.8836 33.4452 16.7192 35.2808C18.5548 37.1163 20.8934 38.3664 23.4394 38.8728C25.9854 39.3792 28.6244 39.1193 31.0227 38.1259C33.421 37.1325 35.4708 35.4502 36.913 33.2918C38.3552 31.1335 39.125 28.5959 39.125 26C39.125 22.519 37.7422 19.1806 35.2808 16.7192C32.8193 14.2578 29.481 12.875 26 12.875V12.875ZM26 35.375C24.1458 35.375 22.3332 34.8252 20.7915 33.795C19.2498 32.7649 18.0482 31.3007 17.3386 29.5876C16.629 27.8746 16.4434 25.9896 16.8051 24.171C17.1669 22.3524 18.0597 20.682 19.3709 19.3709C20.682 18.0597 22.3524 17.1669 24.171 16.8051C25.9896 16.4434 27.8746 16.629 29.5876 17.3386C31.3007 18.0482 32.7649 19.2498 33.795 20.7915C34.8252 22.3332 35.375 24.1458 35.375 26C35.375 28.4864 34.3873 30.871 32.6291 32.6291C30.871 34.3873 28.4864 35.375 26 35.375ZM51.0312 31.25L47.539 26.6094C47.5625 26.1875 47.539 25.7422 47.539 25.414L51.0312 20.75C51.2049 20.523 51.3229 20.2585 51.3758 19.9776C51.4288 19.6968 51.4151 19.4074 51.3359 19.1328C50.7453 16.972 49.887 14.8934 48.7812 12.9453C48.6386 12.6978 48.4425 12.4853 48.2074 12.3231C47.9722 12.1609 47.7039 12.0532 47.4219 12.0078L41.6797 11.1875L40.8125 10.3203L39.9922 4.57811C39.9468 4.2961 39.839 4.02775 39.6769 3.7926C39.5147 3.55745 39.3021 3.36141 39.0547 3.21874C37.1066 2.11292 35.028 1.25472 32.8672 0.66405C32.5926 0.584892 32.3032 0.571222 32.0224 0.624137C31.7415 0.677051 31.477 0.795076 31.25 0.968738L26.6094 4.43749H25.3906L20.75 0.968738C20.523 0.795076 20.2585 0.677051 19.9776 0.624137C19.6968 0.571222 19.4074 0.584892 19.1328 0.66405C16.972 1.25472 14.8934 2.11292 12.9453 3.21874C12.6978 3.36141 12.4853 3.55745 12.3231 3.7926C12.1609 4.02775 12.0532 4.2961 12.0078 4.57811L11.1875 10.3203L10.3203 11.1875L4.57811 12.0078C4.2961 12.0532 4.02775 12.1609 3.7926 12.3231C3.55745 12.4853 3.36141 12.6978 3.21874 12.9453C2.11292 14.8934 1.25472 16.972 0.66405 19.1328C0.584892 19.4074 0.571222 19.6968 0.624137 19.9776C0.677051 20.2585 0.795076 20.523 0.968738 20.75L4.46092 25.3906V26.5859L0.968738 31.25C0.795076 31.477 0.677051 31.7415 0.624137 32.0224C0.571222 32.3032 0.584892 32.5926 0.66405 32.8672C1.25472 35.028 2.11292 37.1066 3.21874 39.0547C3.36141 39.3021 3.55745 39.5147 3.7926 39.6769C4.02775 39.839 4.2961 39.9468 4.57811 39.9922L10.3203 40.8125L11.1875 41.6797L12.0078 47.4219C12.0532 47.7039 12.1609 47.9722 12.3231 48.2074C12.4853 48.4425 12.6978 48.6386 12.9453 48.7812C14.8934 49.887 16.972 50.7453 19.1328 51.3359C19.2928 51.3823 19.4584 51.4059 19.625 51.4062C20.0315 51.4115 20.4279 51.2794 20.75 51.0312L25.3906 47.5625H26.6094L31.25 51.0312C31.477 51.2049 31.7415 51.3229 32.0224 51.3758C32.3032 51.4288 32.5926 51.4151 32.8672 51.3359C35.028 50.7453 37.1066 49.887 39.0547 48.7812C39.3021 48.6386 39.5147 48.4425 39.6769 48.2074C39.839 47.9722 39.9468 47.7039 39.9922 47.4219L40.8125 41.6562C41.0937 41.375 41.4219 41.0703 41.6562 40.8125L47.4219 39.9922C47.7039 39.9468 47.9722 39.839 48.2074 39.6769C48.4425 39.5147 48.6386 39.3021 48.7812 39.0547C49.887 37.1066 50.7453 35.028 51.3359 32.8672C51.4151 32.5926 51.4288 32.3032 51.3758 32.0224C51.3229 31.7415 51.2049 31.477 51.0312 31.25V31.25ZM45.9453 36.4062L40.4844 37.1797C40.0628 37.2487 39.6757 37.4546 39.3828 37.7656C39.1016 38.0703 38.2344 38.9609 37.8125 39.3359C37.4702 39.6301 37.2455 40.0379 37.1797 40.4844L36.4062 45.9453C35.2388 46.5685 34.0145 47.0786 32.75 47.4687L28.3203 44.1406C27.9637 43.8743 27.5214 43.7491 27.0781 43.789H24.9219C24.4786 43.7491 24.0362 43.8743 23.6797 44.1406L19.25 47.4687C17.9855 47.0786 16.7612 46.5685 15.5937 45.9453L14.8203 40.4844C14.7545 40.0379 14.5298 39.6301 14.1875 39.3359C13.6451 38.8639 13.1361 38.3548 12.664 37.8125C12.3699 37.4702 11.9621 37.2455 11.5156 37.1797L6.05468 36.4062C5.44135 35.2342 4.9316 34.0108 4.53124 32.75L7.85936 28.3203C8.10068 27.9769 8.2315 27.5681 8.23436 27.1484C8.21093 26.7265 8.18749 25.5078 8.21092 24.9219C8.25091 24.4786 8.12571 24.0362 7.85936 23.6797L4.53124 19.25C4.9316 17.9892 5.44135 16.7658 6.05468 15.5937L11.5156 14.8203C11.9621 14.7545 12.3699 14.5298 12.664 14.1875C13.1361 13.6451 13.6451 13.1361 14.1875 12.664C14.5298 12.3699 14.7545 11.9621 14.8203 11.5156L15.5937 6.05468C16.7658 5.44135 17.9892 4.9316 19.25 4.53124L23.6797 7.85936C24.0362 8.12571 24.4786 8.25091 24.9219 8.21092C25.625 8.18749 26.375 8.18749 27.0781 8.21092C27.5214 8.25091 27.9637 8.12571 28.3203 7.85936L32.75 4.53124C34.0145 4.92139 35.2388 5.43152 36.4062 6.05468L37.1797 11.5156C37.2455 11.9621 37.4702 12.3699 37.8125 12.664C38.3548 13.1361 38.8639 13.6451 39.3359 14.1875C39.6301 14.5298 40.0379 14.7545 40.4844 14.8203L45.9453 15.5937C46.5685 16.7612 47.0786 17.9855 47.4687 19.25L44.1406 23.6797C43.8993 24.023 43.7685 24.4319 43.7656 24.8515C43.789 25.2734 43.8125 26.4922 43.789 27.0781C43.7491 27.5214 43.8743 27.9637 44.1406 28.3203L47.4687 32.75C47.0786 34.0145 46.5685 35.2388 45.9453 36.4062V36.4062Z" fill="#00A54F"/>
</svg>
