<svg width="54" height="51" viewBox="0 0 54 51" fill="none" xmlns="http://www.w3.org/2000/svg">
<path d="M9.77437 0.51123L7.13438 3.14748L11.0625 7.07373L13.6988 4.43748L9.7725 0.51123H9.77437ZM44.2275 0.51123L40.2994 4.43748L42.9375 7.07373L46.8638 3.14936L44.2256 0.51123H44.2275ZM27 1.68123C26.3813 1.68873 25.755 1.72436 25.125 1.80123C25.1063 1.80123 25.0875 1.79748 25.0688 1.80123C17.4638 2.67311 11.4113 8.81748 10.3594 16.3887C9.51937 22.4825 12.0319 28.0081 16.2188 31.5669C17.9314 33.0285 19.0898 35.0342 19.5 37.2481V48.4981H23.775C24.4275 49.6175 25.6181 50.3731 27 50.3731C28.3819 50.3731 29.5725 49.6175 30.225 48.4981H34.5V40.9981H34.6763V38.7706C34.6763 36.0219 36.105 33.2506 38.4263 31.0962C41.5312 27.9875 43.875 23.5719 43.875 18.5C43.875 9.23748 36.2513 1.59498 27 1.68123ZM27 5.43123C34.2469 5.32998 40.125 11.2625 40.125 18.5C40.125 22.4262 38.3063 25.8837 35.7881 28.4L35.8481 28.46C33.3457 30.7676 31.7276 33.8765 31.2731 37.25H23.0719C22.6594 34.0362 21.2812 30.9256 18.6769 28.6944C15.3637 25.8819 13.3894 21.6444 14.0494 16.8594C14.8688 10.9531 19.6613 6.20373 25.5338 5.55311C26.0186 5.48551 26.5069 5.44545 26.9963 5.43311L27 5.43123ZM0.75 18.5V22.25H6.375V18.5H0.75ZM47.625 18.5V22.25H53.25V18.5H47.625ZM11.0625 33.6762L7.13625 37.6006L9.77437 40.2387L13.6969 36.3125L11.0625 33.6762ZM42.9375 33.6762L40.3013 36.3125L44.2256 40.2387L46.8638 37.6006L42.9375 33.6762ZM23.25 41H30.75V44.75H23.25V41Z" fill="#ffff"/>
</svg>
